<svg width="33" height="28" viewBox="0 0 33 28" fill="none" xmlns="http://www.w3.org/2000/svg">
<path d="M13.2814 24.6154C13.2814 25.282 13.0379 25.859 12.5507 26.3462C12.0635 26.8333 11.4866 27.0769 10.8199 27.0769C10.1532 27.0769 9.57632 26.8333 9.08914 26.3462C8.60196 25.859 8.35837 25.282 8.35837 24.6154C8.35837 23.9487 8.60196 23.3718 9.08914 22.8846C9.57632 22.3974 10.1532 22.1538 10.8199 22.1538C11.4866 22.1538 12.0635 22.3974 12.5507 22.8846C13.0379 23.3718 13.2814 23.9487 13.2814 24.6154ZM30.5122 24.6154C30.5122 25.282 30.2686 25.859 29.7814 26.3462C29.2943 26.8333 28.7173 27.0769 28.0507 27.0769C27.384 27.0769 26.8071 26.8333 26.3199 26.3462C25.8327 25.859 25.5891 25.282 25.5891 24.6154C25.5891 23.9487 25.8327 23.3718 26.3199 22.8846C26.8071 22.3974 27.384 22.1538 28.0507 22.1538C28.7173 22.1538 29.2943 22.3974 29.7814 22.8846C30.2686 23.3718 30.5122 23.9487 30.5122 24.6154ZM32.9738 3.69231V13.5385C32.9738 13.8462 32.868 14.1186 32.6564 14.3558C32.4449 14.5929 32.1853 14.7308 31.8776 14.7692L11.8007 17.1154C11.9673 17.8846 12.0507 18.3333 12.0507 18.4615C12.0507 18.6667 11.8968 19.0769 11.5891 19.6923H29.2814C29.6148 19.6923 29.9032 19.8141 30.1468 20.0577C30.3904 20.3013 30.5122 20.5897 30.5122 20.9231C30.5122 21.2564 30.3904 21.5449 30.1468 21.7885C29.9032 22.032 29.6148 22.1538 29.2814 22.1538H9.58914C9.25581 22.1538 8.96734 22.032 8.72376 21.7885C8.48017 21.5449 8.35837 21.2564 8.35837 20.9231C8.35837 20.782 8.40965 20.5801 8.51222 20.3173C8.61478 20.0545 8.71734 19.8237 8.81991 19.625C8.92247 19.4263 9.06029 19.1699 9.23337 18.8558C9.40645 18.5417 9.50581 18.3526 9.53145 18.2885L6.1276 2.46154H2.20452C1.87119 2.46154 1.58273 2.33974 1.33914 2.09615C1.09555 1.85256 0.973755 1.5641 0.973755 1.23077C0.973755 0.897436 1.09555 0.608974 1.33914 0.365385C1.58273 0.121795 1.87119 0 2.20452 0H7.1276C7.33273 0 7.51542 0.0416667 7.67568 0.125C7.83593 0.208333 7.96093 0.307692 8.05068 0.423077C8.14042 0.538462 8.22376 0.695513 8.30068 0.894231C8.3776 1.09295 8.42888 1.25962 8.45452 1.39423C8.48017 1.52885 8.51542 1.71795 8.56029 1.96154C8.60517 2.20513 8.63401 2.37179 8.64683 2.46154H31.743C32.0763 2.46154 32.3648 2.58333 32.6084 2.82692C32.852 3.07051 32.9738 3.35897 32.9738 3.69231Z" fill="#2D2D2D"/>
</svg>
