<svg width="25" height="24" viewBox="0 0 25 24" fill="none" xmlns="http://www.w3.org/2000/svg">
<path d="M12.9869 13.4L8.08686 18.3C7.90353 18.4834 7.6702 18.575 7.38687 18.575C7.10353 18.575 6.8702 18.4834 6.68686 18.3C6.50353 18.1167 6.41187 17.8834 6.41187 17.6C6.41187 17.3167 6.50353 17.0834 6.68686 16.9L11.5869 12L6.68686 7.10005C6.50353 6.91672 6.41187 6.68338 6.41187 6.40005C6.41187 6.11672 6.50353 5.88338 6.68686 5.70005C6.8702 5.51672 7.10353 5.42505 7.38687 5.42505C7.6702 5.42505 7.90353 5.51672 8.08686 5.70005L12.9869 10.6L17.8869 5.70005C18.0702 5.51672 18.3035 5.42505 18.5869 5.42505C18.8702 5.42505 19.1035 5.51672 19.2869 5.70005C19.4702 5.88338 19.5619 6.11672 19.5619 6.40005C19.5619 6.68338 19.4702 6.91672 19.2869 7.10005L14.3869 12L19.2869 16.9C19.4702 17.0834 19.5619 17.3167 19.5619 17.6C19.5619 17.8834 19.4702 18.1167 19.2869 18.3C19.1035 18.4834 18.8702 18.575 18.5869 18.575C18.3035 18.575 18.0702 18.4834 17.8869 18.3L12.9869 13.4Z" fill="white"/>
</svg>
