<svg width="32" height="32" viewBox="0 0 32 32" fill="none" xmlns="http://www.w3.org/2000/svg">
<g clip-path="url(#clip0_10_206)">
<path d="M16 32.0023C24.8366 32.0023 32 24.8388 32 16.0023C32 7.1657 24.8366 0.0022583 16 0.0022583C7.16344 0.0022583 0 7.1657 0 16.0023C0 24.8388 7.16344 32.0023 16 32.0023Z" fill="#1977F3"/>
<path d="M22.2281 20.6283L22.9369 16.0023H18.4998V13.0007C18.4998 11.7362 19.1185 10.5009 21.1076 10.5009H23.1259V6.56337C23.1259 6.56337 21.2943 6.25061 19.5438 6.25061C15.8897 6.25061 13.5002 8.46465 13.5002 12.4765V16.0023H9.43665V20.6283H13.5002V31.8088C14.3147 31.937 15.1495 32.0023 16 32.0023C16.8505 32.0023 17.6853 31.9348 18.4998 31.8088V20.6283H22.2281Z" fill="white"/>
</g>
<defs>
<clipPath id="clip0_10_206">
<rect width="32" height="32" fill="white"/>
</clipPath>
</defs>
</svg>
