<svg width="32" height="32" viewBox="0 0 32 32" fill="none" xmlns="http://www.w3.org/2000/svg">
<g clip-path="url(#clip0_10_202)">
<path d="M16.0078 0.242432C9.42808 0.242432 7.50378 0.24922 7.12973 0.28025C5.77946 0.392492 4.93925 0.605098 4.02388 1.06086C3.31845 1.41116 2.7621 1.81722 2.21303 2.38643C1.21306 3.42449 0.607014 4.70158 0.387627 6.21964C0.280963 6.95661 0.249934 7.10692 0.243631 10.8713C0.241207 12.1261 0.243631 13.7775 0.243631 15.9925C0.243631 22.567 0.250904 24.4895 0.282418 24.8628C0.391505 26.1767 0.59756 27.0034 1.03391 27.9076C1.86782 29.6386 3.4605 30.9379 5.33681 31.4228C5.98649 31.5901 6.70404 31.6822 7.62523 31.7258C8.01552 31.7428 11.9936 31.7549 15.9741 31.7549C19.9545 31.7549 23.935 31.7501 24.3156 31.7307C25.3823 31.6805 26.0016 31.5973 26.6865 31.4204C28.5749 30.9331 30.1385 29.6531 30.9894 27.8979C31.4172 27.0155 31.6342 26.1573 31.7324 24.912C31.7537 24.6405 31.7627 20.3115 31.7627 15.9884C31.7627 11.6645 31.753 7.34352 31.7316 7.07201C31.6323 5.80655 31.4153 4.95564 30.9736 4.05625C30.6112 3.32001 30.2088 2.77019 29.6246 2.20801C28.5819 1.21213 27.3068 0.606068 25.7873 0.386916C25.0511 0.280492 24.9045 0.248977 21.1373 0.242432H16.0078Z" fill="url(#paint0_radial_10_202)"/>
<path d="M16.0078 0.242432C9.42808 0.242432 7.50378 0.24922 7.12973 0.28025C5.77946 0.392492 4.93925 0.605098 4.02388 1.06086C3.31845 1.41116 2.7621 1.81722 2.21303 2.38643C1.21306 3.42449 0.607014 4.70158 0.387627 6.21964C0.280963 6.95661 0.249934 7.10692 0.243631 10.8713C0.241207 12.1261 0.243631 13.7775 0.243631 15.9925C0.243631 22.567 0.250904 24.4895 0.282418 24.8628C0.391505 26.1767 0.59756 27.0034 1.03391 27.9076C1.86782 29.6386 3.4605 30.9379 5.33681 31.4228C5.98649 31.5901 6.70404 31.6822 7.62523 31.7258C8.01552 31.7428 11.9936 31.7549 15.9741 31.7549C19.9545 31.7549 23.935 31.7501 24.3156 31.7307C25.3823 31.6805 26.0016 31.5973 26.6865 31.4204C28.5749 30.9331 30.1385 29.6531 30.9894 27.8979C31.4172 27.0155 31.6342 26.1573 31.7324 24.912C31.7537 24.6405 31.7627 20.3115 31.7627 15.9884C31.7627 11.6645 31.753 7.34352 31.7316 7.07201C31.6323 5.80655 31.4153 4.95564 30.9736 4.05625C30.6112 3.32001 30.2088 2.77019 29.6246 2.20801C28.5819 1.21213 27.3068 0.606068 25.7873 0.386916C25.0511 0.280492 24.9045 0.248977 21.1373 0.242432H16.0078Z" fill="url(#paint1_radial_10_202)"/>
<path d="M16.0005 4.36365C12.8403 4.36365 12.4437 4.37747 11.2026 4.43395C9.96381 4.49068 9.11826 4.6868 8.3784 4.97456C7.61309 5.27177 6.9639 5.66934 6.31713 6.31637C5.66988 6.96316 5.27232 7.61237 4.97414 8.37747C4.68567 9.11759 4.48931 9.96341 4.43355 11.2017C4.37804 12.4429 4.36349 12.8398 4.36349 16C4.36349 19.1603 4.37756 19.5556 4.4338 20.7969C4.49076 22.0356 4.68688 22.8812 4.97439 23.6211C5.27183 24.3864 5.66939 25.0356 6.31641 25.6824C6.96293 26.3297 7.61212 26.7283 8.37695 27.0255C9.11729 27.3132 9.96308 27.5093 11.2016 27.5661C12.4428 27.6226 12.8391 27.6364 15.999 27.6364C19.1594 27.6364 19.5548 27.6226 20.796 27.5661C22.0347 27.5093 22.8812 27.3132 23.6216 27.0255C24.3866 26.7283 25.0349 26.3297 25.6814 25.6824C26.3286 25.0356 26.7262 24.3864 27.0244 23.6213C27.3104 22.8812 27.5068 22.0354 27.565 20.7971C27.6207 19.5559 27.6353 19.1603 27.6353 16C27.6353 12.8398 27.6207 12.4432 27.565 11.202C27.5068 9.96316 27.3104 9.11759 27.0244 8.37771C26.7262 7.61237 26.3286 6.96316 25.6814 6.31637C25.0341 5.6691 24.3869 5.27153 23.6209 4.97456C22.8791 4.6868 22.033 4.49068 20.7943 4.43395C19.5531 4.37747 19.158 4.36365 15.9968 4.36365H16.0005ZM14.9566 6.46062C15.2664 6.46013 15.6121 6.46062 16.0005 6.46062C19.1073 6.46062 19.4755 6.47177 20.7024 6.52753C21.8369 6.57941 22.4526 6.76898 22.8628 6.92825C23.4058 7.13916 23.793 7.39128 24.2 7.79856C24.6072 8.20583 24.8594 8.59371 25.0707 9.13674C25.23 9.54643 25.4198 10.1622 25.4715 11.2967C25.5272 12.5234 25.5393 12.8919 25.5393 15.9973C25.5393 19.1028 25.5272 19.4713 25.4715 20.698C25.4196 21.8325 25.23 22.4483 25.0707 22.858C24.8598 23.401 24.6072 23.7876 24.2 24.1947C23.7927 24.6019 23.4061 24.8541 22.8628 25.065C22.4531 25.225 21.8369 25.4141 20.7024 25.466C19.4758 25.5217 19.1073 25.5338 16.0005 25.5338C12.8934 25.5338 12.5252 25.5217 11.2986 25.466C10.164 25.4136 9.54831 25.224 9.1379 25.0647C8.59488 24.8538 8.20701 24.6017 7.79975 24.1944C7.39249 23.7872 7.14038 23.4003 6.92899 22.857C6.76973 22.4473 6.57991 21.8315 6.52828 20.697C6.47252 19.4703 6.46137 19.1018 6.46137 15.9944C6.46137 12.887 6.47252 12.5205 6.52828 11.2938C6.58016 10.1593 6.76973 9.54353 6.92899 9.13334C7.1399 8.59031 7.39249 8.20244 7.79975 7.79516C8.20701 7.38789 8.59488 7.13577 9.1379 6.92437C9.54807 6.76437 10.164 6.57528 11.2986 6.52316C12.372 6.47468 12.788 6.46013 14.9566 6.45771V6.46062ZM22.2117 8.39274C21.4408 8.39274 20.8154 9.01747 20.8154 9.78862C20.8154 10.5595 21.4408 11.185 22.2117 11.185C22.9826 11.185 23.608 10.5595 23.608 9.78862C23.608 9.01771 22.9826 8.39225 22.2117 8.39225V8.39274ZM16.0005 10.0243C12.7005 10.0243 10.0249 12.6999 10.0249 16C10.0249 19.3001 12.7005 21.9746 16.0005 21.9746C19.3005 21.9746 21.9751 19.3001 21.9751 16C21.9751 12.6999 19.3003 10.0243 16.0002 10.0243H16.0005ZM16.0005 12.1212C18.1425 12.1212 19.8791 13.8577 19.8791 16C19.8791 18.1421 18.1425 19.8788 16.0005 19.8788C13.8582 19.8788 12.1218 18.1421 12.1218 16C12.1218 13.8577 13.8582 12.1212 16.0005 12.1212Z" fill="white"/>
</g>
<defs>
<radialGradient id="paint0_radial_10_202" cx="0" cy="0" r="1" gradientUnits="userSpaceOnUse" gradientTransform="translate(8.61513 34.182) rotate(-90) scale(31.2312 29.0545)">
<stop stop-color="#FFDD55"/>
<stop offset="0.1" stop-color="#FFDD55"/>
<stop offset="0.5" stop-color="#FF543E"/>
<stop offset="1" stop-color="#C837AB"/>
</radialGradient>
<radialGradient id="paint1_radial_10_202" cx="0" cy="0" r="1" gradientUnits="userSpaceOnUse" gradientTransform="translate(-5.03723 2.51254) rotate(78.678) scale(13.9606 57.5591)">
<stop stop-color="#3771C8"/>
<stop offset="0.128" stop-color="#3771C8"/>
<stop offset="1" stop-color="#6600FF" stop-opacity="0"/>
</radialGradient>
<clipPath id="clip0_10_202">
<rect width="32" height="32" fill="white"/>
</clipPath>
</defs>
</svg>
