<svg width="32" height="32" viewBox="0 0 32 32" fill="none" xmlns="http://www.w3.org/2000/svg">
<path d="M11.0497 12.6024V11.3555C10.616 11.2869 10.178 11.2493 9.73897 11.243C5.48858 11.2341 1.72553 13.9833 0.449193 18.03C-0.827143 22.0767 0.679426 26.4818 4.16844 28.9048C1.55492 26.1129 0.82923 22.0487 2.31553 18.5275C3.80182 15.0063 7.22254 12.6858 11.0497 12.6024Z" fill="#25F4EE"/>
<path d="M11.2852 26.7277C13.6617 26.7245 15.6151 24.8558 15.7191 22.486V1.33894H19.5898C19.5108 0.897072 19.4731 0.448832 19.4772 0H14.1831V21.1266C14.0951 23.5085 12.1371 25.3951 9.74922 25.399C9.03565 25.393 8.33372 25.2178 7.70123 24.8879C8.53263 26.0377 9.86462 26.7215 11.2852 26.7277Z" fill="#25F4EE"/>
<path d="M26.8192 8.51404V7.33864C25.3947 7.33912 24.0018 6.91954 22.8154 6.13257C23.8554 7.33937 25.2609 8.17533 26.8192 8.51404Z" fill="#25F4EE"/>
<path d="M22.8154 6.13257C21.6467 4.80419 21.0024 3.0966 21.0029 1.32874H19.5898C19.9586 3.30412 21.125 5.04121 22.8154 6.13257Z" fill="#FE2C55"/>
<path d="M9.73895 16.5272C7.69962 16.5377 5.92913 17.9322 5.44478 19.9095C4.96043 21.8868 5.88653 23.9394 7.69097 24.8879C6.71324 23.5406 6.57512 21.7597 7.33345 20.2783C8.09178 18.7968 9.61843 17.8649 11.2852 17.8662C11.7296 17.8717 12.171 17.9405 12.5959 18.0706V12.6944C12.162 12.6295 11.724 12.5953 11.2852 12.5922H11.0497V16.6805C10.6225 16.5662 10.181 16.5146 9.73895 16.5272Z" fill="#FE2C55"/>
<path d="M26.8192 8.51404V12.6024C24.1821 12.5973 21.6135 11.7641 19.4772 10.2209V20.9631C19.4659 26.3234 15.1093 30.6628 9.73899 30.6628C7.74462 30.6663 5.79829 30.0521 4.16846 28.9048C6.88841 31.8247 11.1214 32.7859 14.8392 31.3277C18.557 29.8695 21.0021 26.2891 21.0029 22.3021V11.5905C23.1464 13.1236 25.7182 13.9459 28.3552 13.9413V8.67757C27.8389 8.67594 27.3242 8.62113 26.8192 8.51404Z" fill="#FE2C55"/>
<path d="M19.4771 20.9631V10.2209C21.62 11.7553 24.1922 12.5777 26.8294 12.5717V8.48338C25.2714 8.15499 23.8626 7.32992 22.8154 6.13257C21.125 5.04121 19.9586 3.30412 19.5898 1.32874H15.7191V22.486C15.6417 24.3736 14.375 26.0051 12.5631 26.5511C10.7513 27.0971 8.7917 26.4378 7.68073 24.9084C5.87629 23.9599 4.95019 21.9073 5.43454 19.93C5.91889 17.9526 7.68938 16.5581 9.72872 16.5477C10.1733 16.5517 10.6149 16.6205 11.0394 16.7521V12.6637C7.19082 12.7288 3.74426 15.0574 2.25374 18.5997C0.76322 22.142 1.51032 26.2287 4.15818 29.0172C5.80408 30.1267 7.75325 30.7014 9.73895 30.6628C15.1092 30.6628 19.4658 26.3234 19.4771 20.9631Z" fill="#2D2D2D"/>
</svg>
