<svg width="32" height="32" viewBox="0 0 32 32" fill="none" xmlns="http://www.w3.org/2000/svg">
<path d="M28.6387 12.1181C28.6581 12.3981 28.6581 12.6781 28.6581 12.9607C28.6581 21.571 22.1032 31.5013 10.1174 31.5013V31.4962C6.57677 31.5013 3.10967 30.4871 0.129028 28.5749C0.643867 28.6368 1.16129 28.6678 1.68 28.6691C4.61419 28.6716 7.46451 27.6871 9.7729 25.8742C6.98451 25.8213 4.53935 24.0033 3.68516 21.3491C4.66193 21.5374 5.66838 21.4987 6.62709 21.2368C3.58709 20.6226 1.4 17.9516 1.4 14.8497V14.7671C2.3058 15.2716 3.32 15.5516 4.35742 15.5826C1.49419 13.6691 0.611609 9.86003 2.34064 6.88196C5.64903 10.9529 10.5303 13.4278 15.7703 13.6897C15.2452 11.4265 15.9626 9.05487 17.6555 7.4639C20.28 4.9968 24.4077 5.12325 26.8748 7.74648C28.3342 7.45874 29.7329 6.92325 31.0129 6.16454C30.5264 7.67293 29.5084 8.95422 28.1484 9.76841C29.44 9.61616 30.7019 9.27035 31.8903 8.74261C31.0155 10.0536 29.9135 11.1955 28.6387 12.1181Z" fill="#1D9BF0"/>
</svg>
